<?xml version="1.0" standalone="no"?>
<!DOCTYPE svg PUBLIC "-//W3C//DTD SVG 20010904//EN"
 "http://www.w3.org/TR/2001/REC-SVG-20010904/DTD/svg10.dtd">
<svg version="1.0" xmlns="http://www.w3.org/2000/svg"
 width="100.000000pt" height="100.000000pt" viewBox="0 0 100.000000 100.000000"
 preserveAspectRatio="xMidYMid meet">

<g transform="translate(0.000000,100.000000) scale(0.100000,-0.100000)"
fill="#FFFFFF" stroke="none">
<path d="M490 850 c-11 -11 -20 -32 -20 -46 0 -16 -4 -23 -11 -18 -14 8 -131
-107 -124 -123 3 -8 -5 -13 -20 -13 -31 0 -65 -33 -65 -62 0 -29 140 -168 169
-168 29 0 61 35 61 66 0 15 4 23 11 19 5 -4 18 0 28 9 16 14 21 11 71 -39 50
-50 53 -57 42 -76 -8 -12 -12 -22 -10 -24 2 -1 36 -20 76 -42 41 -23 69 -44
63 -47 -6 -4 -38 9 -71 28 -33 19 -61 32 -64 28 -5 -8 109 -165 123 -170 5 -2
22 14 37 35 19 25 35 37 47 35 30 -6 46 16 44 63 -2 37 -4 42 -19 34 -10 -6
-19 -5 -23 0 -3 6 5 15 17 22 13 6 25 13 27 15 4 4 -122 204 -129 204 -3 0
-18 -21 -33 -46 l-28 -47 -49 48 c-46 45 -48 50 -34 66 9 10 13 23 9 28 -4 7
4 11 19 11 31 0 66 32 66 61 0 29 -140 169 -169 169 -11 0 -30 -9 -41 -20z
m118 -73 c73 -74 82 -97 44 -112 -11 -4 -38 17 -89 67 -40 40 -73 76 -73 80 0
9 29 38 38 38 4 0 40 -33 80 -73z m-13 -116 c-7 -6 -105 90 -105 103 0 6 25
-14 55 -44 30 -29 52 -56 50 -59z m-68 37 c35 -34 63 -67 63 -72 0 -14 -82
-96 -95 -96 -13 0 -135 124 -135 136 0 12 82 94 94 94 6 0 39 -28 73 -62z
m-139 -141 c73 -74 82 -97 44 -112 -11 -4 -38 17 -89 67 -40 40 -73 76 -73 80
0 9 29 38 38 38 4 0 40 -33 80 -73z m27 23 c27 -27 47 -52 44 -55 -3 -2 -30
20 -59 50 -30 30 -50 55 -44 55 5 0 32 -22 59 -50z m214 -64 c33 -33 41 -48
34 -60 -7 -13 -17 -8 -57 33 -27 27 -45 54 -42 60 11 18 19 14 65 -33z m181
-196 c-8 -5 -19 -10 -25 -10 -5 0 -3 5 5 10 8 5 20 10 25 10 6 0 3 -5 -5 -10z"/>
<path d="M208 292 c-7 -10 -21 -21 -31 -25 -19 -7 -40 -50 -52 -104 l-7 -33
262 0 262 0 -7 33 c-12 54 -33 97 -52 104 -10 4 -24 15 -31 25 -12 16 -30 18
-172 18 -142 0 -160 -2 -172 -18z m376 -58 c9 -8 16 -24 16 -34 0 -15 -9 -20
-42 -23 l-43 -4 48 -1 c26 -1 47 -6 47 -12 0 -6 -83 -10 -230 -10 -147 0 -230
4 -230 10 0 6 51 11 128 12 l127 2 -122 3 c-113 3 -123 5 -123 23 0 46 19 50
220 50 158 0 191 -3 204 -16z"/>
<path d="M438 173 c12 -2 30 -2 40 0 9 3 -1 5 -23 4 -22 0 -30 -2 -17 -4z"/>
</g>
</svg>
